<svg xmlns="http://www.w3.org/2000/svg" width="35" height="35" fill="none" style=""><rect id="backgroundrect" width="100%" height="100%" x="0" y="0" fill="none" stroke="none" class="" style=""/>              <g class="currentLayer" style=""><title>Layer 1</title><path d="M17.5,0 C15.201899999999998,0 12.9262,0.4527000000000001 10.803,1.3321 C8.6798,2.2116 6.7507,3.5006000000000004 5.1256,5.1256 C3.5006000000000004,6.7507 2.2116,8.6798 1.3321,10.803 C0.4527000000000001,12.9262 0,15.201899999999998 0,17.5 C0,19.7981 0.4527000000000001,22.0738 1.3321,24.197 C2.2116,26.3202 3.5006000000000004,28.2493 5.1256,29.8744 C6.7507,31.4994 8.6798,32.7884 10.803,33.6679 C12.9262,34.5473 15.201899999999998,35 17.5,35 V26.25 C16.3509,26.25 15.2131,26.0237 14.151499999999999,25.5839 C13.0899,25.1442 12.1253,24.4997 11.3128,23.6872 C10.5003,22.8747 9.8558,21.9101 9.4161,20.8485 C8.9763,19.7869 8.75,18.6491 8.75,17.5 C8.75,16.3509 8.9763,15.2131 9.4161,14.151499999999999 C9.8558,13.0899 10.5003,12.1253 11.3128,11.3128 C12.1253,10.5003 13.0899,9.8558 14.151499999999999,9.4161 C15.2131,8.9763 16.3509,8.75 17.5,8.75 V0 z" class="ccustom" fill="#007dfc" id="svg_1"/><path d="M17.5001,23.3333 C20.7218,23.3333 23.3334,20.7217 23.3334,17.5 C23.3334,14.278300000000002 20.7218,11.6667 17.5001,11.6667 C14.278400000000001,11.6667 11.6668,14.278300000000002 11.6668,17.5 C11.6668,20.7217 14.278400000000001,23.3333 17.5001,23.3333 z" class="ccustom" fill="#007dfc" id="svg_2"/><path d="M0,17.5 C0,19.7981 0.4527000000000001,22.0738 1.3321,24.197 C2.2116,26.3202 3.5006000000000004,28.2493 5.1256,29.8744 C6.7507,31.4994 8.6798,32.7884 10.803,33.6679 C12.9262,34.5473 15.201899999999998,35 17.5,35 C19.7981,35 22.0738,34.5473 24.197,33.6679 C26.3202,32.7884 28.2493,31.4994 29.8744,29.8744 C31.4994,28.2493 32.7884,26.3202 33.6679,24.197 C34.5473,22.0738 35,19.7981 35,17.5 H26.25 C26.25,18.6491 26.0237,19.7869 25.5839,20.8485 C25.1442,21.9101 24.4997,22.8747 23.6872,23.6872 C22.8747,24.4997 21.9101,25.1442 20.8485,25.5839 C19.7869,26.0237 18.6491,26.25 17.5,26.25 C16.3509,26.25 15.2131,26.0237 14.151499999999999,25.5839 C13.0899,25.1442 12.1253,24.4997 11.3128,23.6872 C10.5003,22.8747 9.8558,21.9101 9.4161,20.8485 C8.9763,19.7869 8.75,18.6491 8.75,17.5 H0 z" class="ccompli1" fill="#005bb8" id="svg_3"/><path d="M23.3334,17.5 C23.3334,15.9529 22.7188,14.4692 21.6249,13.3752 C20.5309,12.2812 19.0472,11.6666 17.5001,11.6666 C15.953,11.6666 14.4693,12.2812 13.3753,13.3752 C12.2813,14.4692 11.6667,15.9529 11.6667,17.5 H17.5001 H23.3334 z" class="ccompli1" fill="#005bb8" id="svg_4"/></g></svg>